<?xml version="1.0" encoding="utf-8"?>
<!-- Generator: Adobe Illustrator 16.0.0, SVG Export Plug-In . SVG Version: 6.00 Build 0)  -->
<!DOCTYPE svg PUBLIC "-//W3C//DTD SVG 1.1//EN" "http://www.w3.org/Graphics/SVG/1.1/DTD/svg11.dtd">
<svg version="1.1" id="Layer_1" xmlns="http://www.w3.org/2000/svg" xmlns:xlink="http://www.w3.org/1999/xlink" x="0px" y="0px"
	 width="220px" height="20px" viewBox="0 0 220 20" enable-background="new 0 0 220 20" xml:space="preserve">
<g>
	<path fill="#FFFFFF" d="M3.985,10.083l12.994,5.251v4.068L0,11.535V8.506L16.979,0.66v4.067L3.985,10.083z"/>
	<g>
		<path fill="#FFFFFF" d="M35.38,3.338h-5.554v15.105H26.09V3.338h-5.479V0.312h14.77V3.338z"/>
		<path fill="#FFFFFF" d="M52.268,18.443h-3.736v-7.771h-7.285v7.771H37.51V0.312h3.736v7.348h7.285V0.312h3.736V18.443z"/>
		<path fill="#FFFFFF" d="M66.44,10.585h-7.174v4.857h8.419v3.001H55.53V0.312h12.131v3.026h-8.395v4.321h7.174V10.585z"/>
		<path fill="#FFFFFF" d="M76.228,18.443V0.312h5.579c1.594,0,3.021,0.358,4.278,1.077c1.258,0.718,2.239,1.739,2.944,3.063
			c0.706,1.324,1.059,2.829,1.059,4.515v0.834c0,1.686-0.346,3.184-1.039,4.496c-0.693,1.312-1.672,2.328-2.934,3.051
			s-2.686,1.088-4.271,1.096H76.228z M79.964,3.338v12.104h1.806c1.461,0,2.578-0.478,3.35-1.433
			c0.772-0.955,1.166-2.32,1.184-4.097V8.954c0-1.843-0.382-3.24-1.146-4.19c-0.764-0.951-1.881-1.426-3.35-1.426H79.964z"/>
		<path fill="#FFFFFF" d="M103.713,10.585H96.54v4.857h8.418v3.001H92.803V0.312h12.131v3.026H96.54v4.321h7.174V10.585z"/>
		<path fill="#FFFFFF" d="M113.85,13.947l4.109-13.636h4.16l-6.314,18.132h-3.897l-6.29-18.132h4.147L113.85,13.947z"/>
		<path fill="#FFFFFF" d="M133.228,13.686c0-0.705-0.25-1.247-0.747-1.625c-0.499-0.378-1.396-0.776-2.69-1.195
			s-2.32-0.832-3.076-1.238c-2.059-1.113-3.088-2.611-3.088-4.496c0-0.979,0.275-1.854,0.828-2.622
			c0.553-0.767,1.345-1.367,2.379-1.799c1.033-0.432,2.193-0.647,3.48-0.647c1.295,0,2.449,0.234,3.461,0.703
			c1.014,0.469,1.801,1.132,2.361,1.986c0.561,0.855,0.84,1.827,0.84,2.914h-3.736c0-0.83-0.262-1.476-0.783-1.937
			c-0.523-0.461-1.259-0.69-2.205-0.69c-0.913,0-1.623,0.192-2.129,0.579c-0.506,0.385-0.76,0.895-0.76,1.525
			c0,0.589,0.296,1.083,0.891,1.481c0.594,0.398,1.467,0.772,2.621,1.121c2.125,0.64,3.673,1.432,4.645,2.378
			s1.457,2.126,1.457,3.536c0,1.57-0.594,2.801-1.78,3.693c-1.188,0.893-2.786,1.338-4.796,1.338c-1.394,0-2.664-0.255-3.811-0.765
			c-1.145-0.511-2.019-1.21-2.62-2.099c-0.603-0.889-0.903-1.918-0.903-3.088h3.748c0,2,1.195,3.001,3.586,3.001
			c0.889,0,1.582-0.181,2.081-0.542C132.978,14.838,133.228,14.334,133.228,13.686z"/>
		<path fill="#FFFFFF" d="M154.261,18.443h-3.734v-7.771h-7.287v7.771h-3.734V0.312h3.734v7.348h7.287V0.312h3.734V18.443z"/>
		<path fill="#FFFFFF" d="M172.419,9.788c0,1.785-0.316,3.35-0.947,4.695c-0.631,1.345-1.533,2.383-2.708,3.113
			c-1.175,0.729-2.522,1.095-4.041,1.095c-1.503,0-2.844-0.361-4.022-1.082c-1.18-0.723-2.092-1.754-2.74-3.096
			c-0.648-1.341-0.975-2.883-0.984-4.626V8.991c0-1.785,0.322-3.356,0.965-4.713c0.645-1.358,1.553-2.4,2.729-3.126
			c1.175-0.727,2.518-1.09,4.028-1.09s2.854,0.363,4.028,1.09c1.176,0.726,2.084,1.768,2.729,3.126
			c0.643,1.356,0.965,2.924,0.965,4.701V9.788z M168.634,8.967c0-1.901-0.342-3.347-1.021-4.335
			c-0.682-0.987-1.653-1.481-2.915-1.481c-1.254,0-2.221,0.488-2.901,1.464c-0.682,0.975-1.025,2.405-1.033,4.29v0.884
			c0,1.852,0.34,3.288,1.021,4.309c0.68,1.021,1.659,1.532,2.938,1.532c1.254,0,2.217-0.492,2.89-1.476
			c0.672-0.984,1.012-2.419,1.021-4.303V8.967z"/>
		<path fill="#FFFFFF" d="M178.871,12.055v6.389h-3.736V0.312h7.074c1.361,0,2.558,0.248,3.592,0.747
			c1.033,0.498,1.829,1.206,2.385,2.123c0.557,0.917,0.834,1.962,0.834,3.132c0,1.776-0.607,3.178-1.824,4.203
			c-1.216,1.024-2.898,1.538-5.049,1.538H178.871z M178.871,9.028h3.338c0.987,0,1.74-0.231,2.259-0.697
			c0.521-0.465,0.778-1.129,0.778-1.992c0-0.889-0.26-1.606-0.783-2.154s-1.246-0.83-2.167-0.847h-3.425V9.028z"/>
		<path fill="#FFFFFF" d="M192.482,20h-2.677l6.675-19.688h2.677L192.482,20z"/>
	</g>
	<path fill="#FFFFFF" d="M215.994,9.979l-13.719-5.375V0.66L220,8.506v3.029l-17.726,7.867v-3.985L215.994,9.979z"/>
</g>
</svg>
